<svg xmlns="http://www.w3.org/2000/svg" viewBox="0 0 200 200" width="100%" height="100%">
  <defs>
    <linearGradient id="gold" x1="0%" y1="0%" x2="100%" y2="100%">
      <stop offset="0%" stop-color="#f5d872"/>
      <stop offset="30%" stop-color="#c9a84c"/>
      <stop offset="70%" stop-color="#dbb94a"/>
      <stop offset="100%" stop-color="#a08630"/>
    </linearGradient>
    <linearGradient id="goldLight" x1="0%" y1="100%" x2="100%" y2="0%">
      <stop offset="0%" stop-color="#c9a84c"/>
      <stop offset="40%" stop-color="#f5e080"/>
      <stop offset="100%" stop-color="#c9a84c"/>
    </linearGradient>
    <linearGradient id="burgundy" x1="0%" y1="0%" x2="100%" y2="100%">
      <stop offset="0%" stop-color="#8a1a3a"/>
      <stop offset="50%" stop-color="#6b142b"/>
      <stop offset="100%" stop-color="#4a0e1e"/>
    </linearGradient>
    <radialGradient id="darkBg" cx="50%" cy="50%" r="50%">
      <stop offset="0%" stop-color="#2a0e1a"/>
      <stop offset="70%" stop-color="#1f0c14"/>
      <stop offset="100%" stop-color="#12060a"/>
    </radialGradient>
    <linearGradient id="diamondGrad" x1="0%" y1="0%" x2="100%" y2="100%">
      <stop offset="0%" stop-color="#f5e080"/>
      <stop offset="30%" stop-color="#dbb94a"/>
      <stop offset="60%" stop-color="#c9a84c"/>
      <stop offset="100%" stop-color="#8a6b20"/>
    </linearGradient>
    <linearGradient id="facetLight" x1="0%" y1="0%" x2="100%" y2="100%">
      <stop offset="0%" stop-color="#fdf0a0"/>
      <stop offset="100%" stop-color="#c9a84c"/>
    </linearGradient>
    <linearGradient id="facetDark" x1="100%" y1="100%" x2="0%" y2="0%">
      <stop offset="0%" stop-color="#7a5a18"/>
      <stop offset="100%" stop-color="#c9a84c"/>
    </linearGradient>
    <path id="topArc" d="M 28,100 A 72,72 0 0,1 172,100"/>
    <path id="bottomArc" d="M 28,100 A 72,72 0 0,0 172,100"/>
    <g id="sparkle">
      <path d="M 0,-5 L 1.5,-1.5 L 5,0 L 1.5,1.5 L 0,5 L -1.5,1.5 L -5,0 L -1.5,-1.5 Z" fill="url(#gold)"/>
    </g>
    <g id="diamondDot">
      <path d="M 0,-2.5 L 2.5,0 L 0,2.5 L -2.5,0 Z" fill="url(#gold)"/>
    </g>
    <g id="flourish">
      <path d="M -12,0 C -12,-8 -6,-14 0,-12 C 6,-10 10,-4 8,0 C 6,4 2,6 0,4 C -2,2 -4,0 -6,0" fill="none" stroke="url(#gold)" stroke-width="0.8"/>
      <path d="M 12,0 C 12,-8 6,-14 0,-12 C -6,-10 -10,-4 -8,0 C -6,4 -2,6 0,4 C 2,2 4,0 6,0" fill="none" stroke="url(#gold)" stroke-width="0.8"/>
    </g>
  </defs>
  <circle cx="100" cy="100" r="98" fill="url(#darkBg)"/>
  <circle cx="100" cy="100" r="94" fill="none" stroke="url(#gold)" stroke-width="3"/>
  <circle cx="100" cy="100" r="90" fill="none" stroke="url(#goldLight)" stroke-width="2" stroke-dasharray="0, 10.5" stroke-linecap="round"/>
  <circle cx="100" cy="100" r="87" fill="none" stroke="url(#gold)" stroke-width="1.2" stroke-dasharray="0, 6.5" stroke-linecap="round"/>
  <circle cx="100" cy="100" r="85" fill="none" stroke="url(#burgundy)" stroke-width="6"/>
  <circle cx="100" cy="100" r="82" fill="none" stroke="url(#gold)" stroke-width="1.5"/>
  <path d="M 85,15 C 90,20 95,22 100,22 C 105,22 110,20 115,15" fill="none" stroke="url(#gold)" stroke-width="1.2"/>
  <path d="M 85,185 C 90,180 95,178 100,178 C 105,178 110,180 115,185" fill="none" stroke="url(#gold)" stroke-width="1.2"/>
  <path d="M 15,85 C 20,90 22,95 22,100 C 22,105 20,110 15,115" fill="none" stroke="url(#gold)" stroke-width="1.2"/>
  <path d="M 185,85 C 180,90 178,95 178,100 C 178,105 180,110 185,115" fill="none" stroke="url(#gold)" stroke-width="1.2"/>
  <path d="M 143,35 C 138,42 136,48 138,53" fill="none" stroke="url(#gold)" stroke-width="1.2"/>
  <path d="M 57,35 C 62,42 64,48 62,53" fill="none" stroke="url(#gold)" stroke-width="1.2"/>
  <path d="M 143,165 C 138,158 136,152 138,147" fill="none" stroke="url(#gold)" stroke-width="1.2"/>
  <path d="M 57,165 C 62,158 64,152 62,147" fill="none" stroke="url(#gold)" stroke-width="1.2"/>
  <circle cx="100" cy="100" r="79" fill="none" stroke="url(#goldLight)" stroke-width="1.5" stroke-dasharray="0, 8" stroke-linecap="round"/>
  <circle cx="100" cy="100" r="76" fill="none" stroke="url(#gold)" stroke-width="0.8"/>
  <use href="#flourish" x="100" y="10"/>
  <use href="#flourish" x="100" y="190" transform="rotate(180 100 190)"/>
  <use href="#flourish" x="10" y="100" transform="rotate(-90 10 100)"/>
  <use href="#flourish" x="190" y="100" transform="rotate(90 190 100)"/>
  <use href="#diamondDot" x="100" y="22"/>
  <use href="#diamondDot" x="100" y="178"/>
  <use href="#diamondDot" x="22" y="100"/>
  <use href="#diamondDot" x="178" y="100"/>
  <use href="#diamondDot" x="145" y="33"/>
  <use href="#diamondDot" x="55" y="33"/>
  <use href="#diamondDot" x="145" y="167"/>
  <use href="#diamondDot" x="55" y="167"/>
  <path d="M 100,34 L 156,100 L 100,166 L 44,100 Z" fill="none" stroke="url(#gold)" stroke-width="3" opacity="0.3"/>
  <path d="M 100,36 L 154,100 L 100,164 L 46,100 Z" fill="url(#diamondGrad)" stroke="url(#goldLight)" stroke-width="1.5"/>
  <path d="M 100,36 L 100,100 L 73,73 Z" fill="url(#facetLight)" stroke="url(#goldLight)" stroke-width="0.5"/>
  <path d="M 100,36 L 127,73 L 100,100 Z" fill="url(#facetDark)" stroke="url(#goldLight)" stroke-width="0.5"/>
  <path d="M 100,100 L 73,127 L 100,164 Z" fill="url(#facetDark)" stroke="url(#goldLight)" stroke-width="0.5"/>
  <path d="M 100,100 L 127,127 L 100,164 Z" fill="url(#facetLight)" stroke="url(#goldLight)" stroke-width="0.5"/>
  <path d="M 46,100 L 73,73 L 100,100 L 73,127 Z" fill="url(#facetDark)" stroke="url(#goldLight)" stroke-width="0.5"/>
  <path d="M 154,100 L 127,73 L 100,100 L 127,127 Z" fill="url(#facetLight)" stroke="url(#goldLight)" stroke-width="0.5"/>
  <path d="M 100,42 L 148,100 L 100,158 L 52,100 Z" fill="none" stroke="url(#goldLight)" stroke-width="0.8"/>
  <path d="M 46,100 L 154,100" stroke="url(#goldLight)" stroke-width="0.6"/>
  <path d="M 100,70 L 103.8,87.2 L 117,81 L 109.2,94.2 L 126,100 L 109.2,105.8 L 117,119 L 103.8,112.8 L 100,130 L 96.2,112.8 L 83,119 L 90.8,105.8 L 74,100 L 90.8,94.2 L 83,81 L 96.2,87.2 Z" fill="url(#goldLight)" stroke="url(#gold)" stroke-width="0.8"/>
  <circle cx="100" cy="100" r="3.5" fill="url(#goldLight)" stroke="#f5e080" stroke-width="0.5"/>
  <circle cx="100" cy="100" r="1.5" fill="#fff8d0"/>
  <text font-family="'Times New Roman', Georgia, 'Palatino Linotype', serif" font-weight="bold" font-size="9.5" fill="url(#gold)" letter-spacing="2.5">
    <textPath href="#topArc" startOffset="50%" text-anchor="middle">BİNDALLI &amp; KAFTAN</textPath>
  </text>
  <text font-family="'Times New Roman', Georgia, 'Palatino Linotype', serif" font-weight="normal" font-size="5.8" fill="url(#goldLight)" letter-spacing="2">
    <textPath href="#bottomArc" startOffset="50%" text-anchor="middle">✦ PREMIUM BRIDAL WEAR ✦</textPath>
  </text>
  <use href="#sparkle" x="38" y="100"/>
  <use href="#sparkle" x="162" y="100"/>
  <use href="#sparkle" x="132" y="48" transform="scale(0.6) translate(88, 32)"/>
  <use href="#sparkle" x="68" y="48" transform="scale(0.6) translate(45, 32)"/>
  <use href="#sparkle" x="132" y="152" transform="scale(0.6) translate(88, 101)"/>
  <use href="#sparkle" x="68" y="152" transform="scale(0.6) translate(45, 101)"/>
  <circle cx="100" cy="32" r="1" fill="#c9a84c"/>
  <circle cx="100" cy="168" r="1" fill="#c9a84c"/>
  <circle cx="32" cy="100" r="1" fill="#c9a84c"/>
  <circle cx="168" cy="100" r="1" fill="#c9a84c"/>
  <circle cx="140" cy="40" r="1" fill="#c9a84c"/>
  <circle cx="60" cy="40" r="1" fill="#c9a84c"/>
  <circle cx="140" cy="160" r="1" fill="#c9a84c"/>
  <circle cx="60" cy="160" r="1" fill="#c9a84c"/>
  <path d="M 85,26 C 88,24 92,24 95,27" fill="none" stroke="url(#gold)" stroke-width="0.6"/>
  <path d="M 105,27 C 108,24 112,24 115,26" fill="none" stroke="url(#gold)" stroke-width="0.6"/>
  <path d="M 85,174 C 88,176 92,176 95,173" fill="none" stroke="url(#gold)" stroke-width="0.6"/>
  <path d="M 105,173 C 108,176 112,176 115,174" fill="none" stroke="url(#gold)" stroke-width="0.6"/>
  <path d="M 26,85 C 24,88 24,92 27,95" fill="none" stroke="url(#gold)" stroke-width="0.6"/>
  <path d="M 27,105 C 24,108 24,112 26,115" fill="none" stroke="url(#gold)" stroke-width="0.6"/>
  <path d="M 174,85 C 176,88 176,92 173,95" fill="none" stroke="url(#gold)" stroke-width="0.6"/>
  <path d="M 173,105 C 176,108 176,112 174,115" fill="none" stroke="url(#gold)" stroke-width="0.6"/>
  <circle cx="118" cy="57" r="0.8" fill="#f5e080"/>
  <circle cx="136" cy="78" r="0.8" fill="#f5e080"/>
  <circle cx="82" cy="57" r="0.8" fill="#f5e080"/>
  <circle cx="64" cy="78" r="0.8" fill="#f5e080"/>
  <circle cx="118" cy="143" r="0.8" fill="#f5e080"/>
  <circle cx="136" cy="122" r="0.8" fill="#f5e080"/>
  <circle cx="82" cy="143" r="0.8" fill="#f5e080"/>
  <circle cx="64" cy="122" r="0.8" fill="#f5e080"/>
  <path d="M 38,5 C 30,5 5,30 5,38" fill="none" stroke="url(#gold)" stroke-width="1" opacity="0.6"/>
  <path d="M 162,5 C 170,5 195,30 195,38" fill="none" stroke="url(#gold)" stroke-width="1" opacity="0.6"/>
  <path d="M 38,195 C 30,195 5,170 5,162" fill="none" stroke="url(#gold)" stroke-width="1" opacity="0.6"/>
  <path d="M 162,195 C 170,195 195,170 195,162" fill="none" stroke="url(#gold)" stroke-width="1" opacity="0.6"/>
  <circle cx="100" cy="100" r="97" fill="none" stroke="url(#gold)" stroke-width="0.5" opacity="0.4"/>
</svg>
